<svg id="OBJECTS" xmlns="http://www.w3.org/2000/svg" viewBox="0 0 435.33 378.37"><defs><style>.cls-1{fill:#eee8ff;}.cls-2{opacity:0.5;}.cls-3{fill:#c0a4fc;}.cls-4{font-size:42.03px;font-family:Roboto-Medium, Roboto Medium;font-weight:500;}.cls-4,.cls-8{fill:#7a5ce0;}.cls-5{fill:#1d1d1b;}.cls-6{fill:#fff;}.cls-7{fill:#e5dbff;}.cls-11,.cls-12,.cls-13,.cls-14,.cls-15,.cls-9{fill:none;stroke-linecap:round;stroke-linejoin:round;}.cls-12,.cls-9{stroke:#1c1c1b;}.cls-10{fill:#ff9c40;}.cls-11,.cls-15{stroke:#000;}.cls-12{stroke-dasharray:4;}.cls-13{stroke:#1d1d1b;}.cls-14{stroke:#ff9c40;}.cls-14,.cls-15{stroke-width:3px;}</style></defs><path class="cls-1" d="M199,130.68a27.48,27.48,0,0,0-6.5-18.8,31.32,31.32,0,0,0-20.8-10.54c-5.84-.55-11.71.43-17.45,1.65-15.66,3.33-29.09,15.25-40.44,26.24-5.7,5.51-10.92,11.85-13.37,19.39-15.07,46.42,56.29,21.67,73,12.72,11.25-6,22.68-14.63,25.14-27.15A26.06,26.06,0,0,0,199,130.68Z" transform="translate(-30.83 -59.07)"/><path class="cls-1" d="M417.66,317a197.3,197.3,0,0,0,14-46.81c10.66-64.28-10.77-154.34-87.93-160-31.06-2.29-62,9.83-86.69,28.84-20.51,15.79-37.33,36.24-59.2,50.09-34.77,22-86.7,24.14-114.8,56.11-21,23.88-26.17,59.37-16.71,89.72s32.16,55.52,59.37,72,58.67,24.79,90.24,28.55c32.49,3.87,66.36,2.92,96.59-9.59,16.85-7,32.12-17.38,45.93-29.29A225.19,225.19,0,0,0,417.66,317Z" transform="translate(-30.83 -59.07)"/><g class="cls-2"><rect class="cls-3" x="184.03" y="87.53" width="44.12" height="2.46"/><rect class="cls-3" x="158.86" y="87.53" width="17.76" height="2.46"/><rect class="cls-3" x="142.73" y="87.53" width="11.45" height="2.46"/><rect class="cls-3" x="134.67" y="87.53" width="4.58" height="2.46"/><rect class="cls-3" x="80.96" y="87.53" width="47.35" height="2.46"/><rect class="cls-3" x="199.29" y="98.47" width="38.68" height="2.46"/><rect class="cls-3" x="139.82" y="98.47" width="50.27" height="2.46"/><rect class="cls-3" x="125.9" y="98.47" width="5.68" height="2.46"/><rect class="cls-3" x="90.18" y="98.47" width="25.31" height="2.46"/><rect class="cls-3" x="67.54" y="98.47" width="14.75" height="2.46"/><rect class="cls-3" x="174.71" y="116.39" width="44.12" height="2.46"/><rect class="cls-3" x="149.54" y="116.39" width="17.76" height="2.46"/><rect class="cls-3" x="133.41" y="116.39" width="11.45" height="2.46"/><rect class="cls-3" x="125.35" y="116.39" width="4.58" height="2.46"/><rect class="cls-3" x="71.64" y="116.39" width="47.35" height="2.46"/><rect class="cls-3" x="189.97" y="127.34" width="28.87" height="2.46"/><rect class="cls-3" x="139.34" y="127.34" width="41.44" height="2.46"/><rect class="cls-3" x="123.45" y="127.34" width="4.7" height="2.46"/><rect class="cls-3" x="80.85" y="127.34" width="35.13" height="2.46"/><polygon class="cls-3" points="75.88 129.8 65.9 129.8 65.97 127.34 75.95 127.34 75.88 129.8"/><rect class="cls-3" x="189.97" y="150.39" width="28.87" height="2.46"/><rect class="cls-3" x="139.34" y="150.39" width="41.44" height="2.46"/><rect class="cls-3" x="123.45" y="150.39" width="4.7" height="2.46"/><polygon class="cls-3" points="115.99 152.86 80.85 152.52 80.85 150.06 115.99 150.39 115.99 152.86"/><polygon class="cls-3" points="75.88 152.52 65.9 152.52 65.97 150.06 75.95 150.06 75.88 152.52"/><polygon class="cls-3" points="223.6 146.18 222.38 144.12 226.18 141.37 222.57 138.75 223.79 136.7 230.25 141.37 223.6 146.18"/><polygon class="cls-3" points="236.93 94.42 230.28 89.6 236.74 84.93 237.96 86.99 234.35 89.6 238.15 92.36 236.93 94.42"/><polygon class="cls-3" points="69.86 93.67 68.63 91.61 72.44 88.86 68.83 86.24 70.05 84.18 76.51 88.86 69.86 93.67"/><rect class="cls-3" x="345.42" y="192.3" width="43.39" height="2.45"/><rect class="cls-3" x="320.67" y="192.3" width="17.47" height="2.45"/><rect class="cls-3" x="304.8" y="192.3" width="11.26" height="2.45"/><rect class="cls-3" x="296.88" y="192.3" width="4.5" height="2.45"/><rect class="cls-3" x="244.07" y="192.3" width="46.56" height="2.45"/><rect class="cls-3" x="360.42" y="203.18" width="38.04" height="2.45"/><rect class="cls-3" x="301.95" y="203.18" width="49.43" height="2.45"/><rect class="cls-3" x="288.26" y="203.18" width="5.58" height="2.45"/><rect class="cls-3" x="253.13" y="203.18" width="24.89" height="2.45"/><rect class="cls-3" x="230.87" y="203.18" width="14.5" height="2.45"/><rect class="cls-3" x="345.42" y="233.73" width="43.39" height="2.45"/><rect class="cls-3" x="320.67" y="233.73" width="17.47" height="2.45"/><rect class="cls-3" x="304.8" y="233.73" width="11.26" height="2.45"/><rect class="cls-3" x="296.88" y="233.73" width="4.5" height="2.45"/><rect class="cls-3" x="244.07" y="233.73" width="46.56" height="2.45"/><rect class="cls-3" x="360.42" y="244.61" width="28.38" height="2.45"/><rect class="cls-3" x="310.64" y="244.61" width="40.74" height="2.45"/><rect class="cls-3" x="295.01" y="244.61" width="4.62" height="2.45"/><rect class="cls-3" x="253.13" y="244.61" width="34.54" height="2.45"/><polygon class="cls-3" points="248.24 247.06 238.43 247.06 238.5 244.61 248.31 244.61 248.24 247.06"/><rect class="cls-3" x="374.38" y="256.66" width="14.42" height="2.45"/><rect class="cls-3" x="320.67" y="256.66" width="46.43" height="2.45"/><rect class="cls-3" x="299.01" y="256.66" width="13.19" height="2.45"/><rect class="cls-3" x="244.07" y="256.66" width="47.52" height="2.45"/><rect class="cls-3" x="360.42" y="267.55" width="28.38" height="2.45"/><rect class="cls-3" x="310.64" y="267.55" width="40.74" height="2.45"/><rect class="cls-3" x="295.01" y="267.55" width="4.62" height="2.45"/><polygon class="cls-3" points="287.68 269.99 253.13 269.66 253.13 267.21 287.68 267.55 287.68 269.99"/><polygon class="cls-3" points="248.24 269.66 238.43 269.66 238.5 267.21 248.31 267.21 248.24 269.66"/><polygon class="cls-3" points="393.49 263.36 392.29 261.31 396.03 258.57 392.48 255.97 393.68 253.92 400.03 258.57 393.49 263.36"/><polygon class="cls-3" points="397.43 199.15 390.88 194.36 397.24 189.71 398.44 191.76 394.89 194.36 398.63 197.1 397.43 199.15"/><polygon class="cls-3" points="233.15 198.4 231.95 196.35 235.69 193.62 232.14 191.01 233.34 188.97 239.69 193.62 233.15 198.4"/><rect class="cls-3" x="155.98" y="177.89" width="43.39" height="2.45"/><rect class="cls-3" x="131.23" y="177.89" width="17.47" height="2.45"/><rect class="cls-3" x="115.36" y="177.89" width="11.26" height="2.45"/><rect class="cls-3" x="107.44" y="177.89" width="4.5" height="2.45"/><rect class="cls-3" x="54.63" y="177.89" width="46.56" height="2.45"/><rect class="cls-3" x="170.98" y="188.77" width="38.04" height="2.45"/><rect class="cls-3" x="112.51" y="188.77" width="49.43" height="2.45"/><rect class="cls-3" x="98.82" y="188.77" width="5.58" height="2.45"/><rect class="cls-3" x="63.69" y="188.77" width="24.89" height="2.45"/><rect class="cls-3" x="41.44" y="188.77" width="14.5" height="2.45"/><rect class="cls-3" x="162.76" y="208.77" width="43.39" height="2.45"/><rect class="cls-3" x="138.01" y="208.77" width="17.47" height="2.45"/><rect class="cls-3" x="122.15" y="208.77" width="11.26" height="2.45"/><rect class="cls-3" x="114.22" y="208.77" width="4.5" height="2.45"/><rect class="cls-3" x="70.15" y="208.77" width="26.88" height="2.45"/><rect class="cls-3" x="101.06" y="208.77" width="6.92" height="2.45"/><rect class="cls-3" x="177.76" y="219.65" width="28.38" height="2.45"/><rect class="cls-3" x="127.98" y="219.65" width="40.74" height="2.45"/><rect class="cls-3" x="112.36" y="219.65" width="4.62" height="2.45"/><rect class="cls-3" x="70.48" y="219.65" width="34.54" height="2.45"/><rect class="cls-3" x="191.72" y="231.7" width="14.42" height="2.45"/><rect class="cls-3" x="138.01" y="231.7" width="46.43" height="2.45"/><rect class="cls-3" x="116.36" y="231.7" width="13.19" height="2.45"/><rect class="cls-3" x="70.15" y="231.7" width="6.78" height="2.45"/><rect class="cls-3" x="83.22" y="231.7" width="25.72" height="2.45"/><rect class="cls-3" x="177.76" y="242.59" width="28.38" height="2.45"/><rect class="cls-3" x="127.98" y="242.59" width="40.74" height="2.45"/><rect class="cls-3" x="112.36" y="242.59" width="4.62" height="2.45"/><polygon class="cls-3" points="105.02 245.03 70.48 244.7 70.48 242.25 105.02 242.59 105.02 245.03"/><polygon class="cls-3" points="210.83 238.4 209.63 236.35 213.37 233.61 209.82 231.01 211.02 228.96 217.37 233.61 210.83 238.4"/><polygon class="cls-3" points="207.99 184.74 201.45 179.95 207.8 175.31 209 177.35 205.45 179.95 209.19 182.69 207.99 184.74"/><polygon class="cls-3" points="43.71 184 42.51 181.95 46.25 179.21 42.7 176.61 43.9 174.56 50.25 179.21 43.71 184"/></g><text class="cls-4" transform="translate(352.35 143.32)">#ssl</text><path class="cls-5" d="M277.41,409.53H77.5c-3.9,0-4.79-1.95-2-4.35l96.07-77.53,203.66-3.06h0A6.91,6.91,0,0,1,373,329.7l-83.42,75.48A21.62,21.62,0,0,1,277.41,409.53Z" transform="translate(-30.83 -59.07)"/><path class="cls-6" d="M277.41,406.47H77.5c-3.9,0-4.79-2-2-4.35l96.07-77.53H375.25l-85.69,77.53A21.62,21.62,0,0,1,277.41,406.47Z" transform="translate(-30.83 -59.07)"/><path class="cls-7" d="M295.9,379.64H122.39c-2.75,0-3.37-1.37-1.39-3.06l46.76-40a15.16,15.16,0,0,1,8.55-3.07H349.83c2.74,0,3.36,1.37,1.38,3.07l-46.75,40A15.23,15.23,0,0,1,295.9,379.64Z" transform="translate(-30.83 -59.07)"/><path d="M184,336.93h-9c-.86,0-1.06-.43-.44-1l5.77-4.93a4.77,4.77,0,0,1,2.68-1h9.05c.86,0,1.06.43.43,1L186.72,336A4.77,4.77,0,0,1,184,336.93Z" transform="translate(-30.83 -59.07)"/><path d="M196.74,336.93h-8c-.86,0-1.06-.43-.44-1l5.77-4.93a4.77,4.77,0,0,1,2.68-1h8c.86,0,1.06.43.44,1L199.42,336A4.77,4.77,0,0,1,196.74,336.93Z" transform="translate(-30.83 -59.07)"/><path d="M209.44,336.93h-8c-.86,0-1.05-.43-.43-1l5.76-4.93a4.8,4.8,0,0,1,2.69-1h8c.86,0,1,.43.43,1L212.13,336A4.8,4.8,0,0,1,209.44,336.93Z" transform="translate(-30.83 -59.07)"/><path d="M222.15,336.93h-8c-.87,0-1.06-.43-.44-1l5.77-4.93a4.77,4.77,0,0,1,2.68-1h8c.86,0,1.06.43.44,1L224.83,336A4.77,4.77,0,0,1,222.15,336.93Z" transform="translate(-30.83 -59.07)"/><path d="M234.85,336.93h-8c-.86,0-1.06-.43-.44-1l5.77-4.93a4.77,4.77,0,0,1,2.68-1h8c.86,0,1,.43.43,1L237.53,336A4.77,4.77,0,0,1,234.85,336.93Z" transform="translate(-30.83 -59.07)"/><path d="M247.56,336.93h-8c-.86,0-1.05-.43-.43-1l5.77-4.93a4.77,4.77,0,0,1,2.68-1h8c.86,0,1.06.43.44,1L250.24,336A4.77,4.77,0,0,1,247.56,336.93Z" transform="translate(-30.83 -59.07)"/><path d="M260.26,336.93h-8c-.86,0-1.06-.43-.44-1l5.77-4.93a4.77,4.77,0,0,1,2.68-1h8c.87,0,1.06.43.44,1L262.94,336A4.77,4.77,0,0,1,260.26,336.93Z" transform="translate(-30.83 -59.07)"/><path d="M273,336.93h-8c-.86,0-1-.43-.43-1l5.76-4.93a4.82,4.82,0,0,1,2.69-1h8c.86,0,1,.43.43,1L275.65,336A4.77,4.77,0,0,1,273,336.93Z" transform="translate(-30.83 -59.07)"/><path d="M285.67,336.93h-8c-.86,0-1.06-.43-.44-1L283,331a4.77,4.77,0,0,1,2.68-1h8c.86,0,1.06.43.44,1L288.35,336A4.77,4.77,0,0,1,285.67,336.93Z" transform="translate(-30.83 -59.07)"/><path d="M298.37,336.93h-8c-.86,0-1.05-.43-.43-1L295.7,331a4.77,4.77,0,0,1,2.69-1h8c.86,0,1.05.43.43,1L301.06,336A4.82,4.82,0,0,1,298.37,336.93Z" transform="translate(-30.83 -59.07)"/><path d="M311.08,336.93h-8c-.87,0-1.06-.43-.44-1l5.77-4.93a4.77,4.77,0,0,1,2.68-1h8c.86,0,1.06.43.44,1L313.76,336A4.77,4.77,0,0,1,311.08,336.93Z" transform="translate(-30.83 -59.07)"/><path d="M323.78,336.93h-8c-.86,0-1.06-.43-.44-1l5.77-4.93a4.77,4.77,0,0,1,2.68-1h8c.86,0,1.05.43.43,1L326.46,336A4.77,4.77,0,0,1,323.78,336.93Z" transform="translate(-30.83 -59.07)"/><path d="M342.65,336.93H327.94c-.86,0-1.05-.43-.43-1l5.76-4.93a4.8,4.8,0,0,1,2.69-1h14.7c.86,0,1.06.43.44,1L345.33,336A4.77,4.77,0,0,1,342.65,336.93Z" transform="translate(-30.83 -59.07)"/><path d="M181.22,344.76h-15.4c-.86,0-1-.43-.43-1l5.76-4.93a4.8,4.8,0,0,1,2.69-1h15.39c.86,0,1.06.43.44,1l-5.77,4.93A4.77,4.77,0,0,1,181.22,344.76Z" transform="translate(-30.83 -59.07)"/><path d="M193.92,344.76h-8c-.86,0-1-.43-.43-1l5.76-4.93a4.8,4.8,0,0,1,2.69-1h8c.86,0,1.05.43.43,1l-5.76,4.93A4.8,4.8,0,0,1,193.92,344.76Z" transform="translate(-30.83 -59.07)"/><path d="M206.63,344.76h-8c-.87,0-1.06-.43-.44-1l5.77-4.93a4.77,4.77,0,0,1,2.68-1h8c.86,0,1.06.43.44,1l-5.77,4.93A4.77,4.77,0,0,1,206.63,344.76Z" transform="translate(-30.83 -59.07)"/><path d="M219.33,344.76h-8c-.86,0-1.06-.43-.44-1l5.77-4.93a4.77,4.77,0,0,1,2.68-1h8c.86,0,1.05.43.43,1L222,343.8A4.77,4.77,0,0,1,219.33,344.76Z" transform="translate(-30.83 -59.07)"/><path d="M232,344.76h-8c-.86,0-1.05-.43-.43-1l5.77-4.93a4.77,4.77,0,0,1,2.68-1h8c.86,0,1.06.43.44,1l-5.77,4.93A4.77,4.77,0,0,1,232,344.76Z" transform="translate(-30.83 -59.07)"/><path d="M244.74,344.76h-8c-.86,0-1.06-.43-.44-1l5.77-4.93a4.77,4.77,0,0,1,2.68-1h8c.87,0,1.06.43.44,1l-5.77,4.93A4.77,4.77,0,0,1,244.74,344.76Z" transform="translate(-30.83 -59.07)"/><path d="M257.44,344.76h-8c-.86,0-1.05-.43-.43-1l5.76-4.93a4.82,4.82,0,0,1,2.69-1h8c.86,0,1.05.43.43,1l-5.76,4.93A4.77,4.77,0,0,1,257.44,344.76Z" transform="translate(-30.83 -59.07)"/><path d="M270.15,344.76h-8c-.86,0-1.06-.43-.44-1l5.77-4.93a4.77,4.77,0,0,1,2.68-1h8c.86,0,1.06.43.44,1l-5.77,4.93A4.77,4.77,0,0,1,270.15,344.76Z" transform="translate(-30.83 -59.07)"/><path d="M282.85,344.76h-8c-.86,0-1.05-.43-.43-1l5.76-4.93a4.77,4.77,0,0,1,2.69-1h8c.86,0,1.05.43.43,1l-5.76,4.93A4.82,4.82,0,0,1,282.85,344.76Z" transform="translate(-30.83 -59.07)"/><path d="M295.56,344.76h-8c-.87,0-1.06-.43-.44-1l5.77-4.93a4.77,4.77,0,0,1,2.68-1h8c.86,0,1.06.43.44,1l-5.77,4.93A4.77,4.77,0,0,1,295.56,344.76Z" transform="translate(-30.83 -59.07)"/><path d="M308.26,344.76h-8c-.86,0-1.06-.43-.44-1l5.77-4.93a4.77,4.77,0,0,1,2.68-1h8c.86,0,1.05.43.43,1l-5.77,4.93A4.77,4.77,0,0,1,308.26,344.76Z" transform="translate(-30.83 -59.07)"/><path d="M321,344.76h-8c-.86,0-1-.43-.43-1l5.77-4.93a4.77,4.77,0,0,1,2.68-1h8c.86,0,1.06.43.43,1l-5.76,4.93A4.77,4.77,0,0,1,321,344.76Z" transform="translate(-30.83 -59.07)"/><path d="M162.88,360.43H147.49c-.87,0-1.06-.43-.44-1l5.77-4.93a4.77,4.77,0,0,1,2.68-1h15.4c.86,0,1,.43.43,1l-5.76,4.93A4.8,4.8,0,0,1,162.88,360.43Z" transform="translate(-30.83 -59.07)"/><path d="M175.59,360.43h-8c-.87,0-1.06-.43-.44-1l5.77-4.93a4.77,4.77,0,0,1,2.68-1h8c.86,0,1.06.43.44,1l-5.77,4.93A4.77,4.77,0,0,1,175.59,360.43Z" transform="translate(-30.83 -59.07)"/><path d="M188.29,360.43h-8c-.86,0-1.06-.43-.44-1l5.77-4.93a4.77,4.77,0,0,1,2.68-1h8c.86,0,1.05.43.43,1L191,359.47A4.77,4.77,0,0,1,188.29,360.43Z" transform="translate(-30.83 -59.07)"/><path d="M201,360.43h-8c-.86,0-1.05-.43-.43-1l5.77-4.93a4.77,4.77,0,0,1,2.68-1h8c.86,0,1.06.43.44,1l-5.77,4.93A4.77,4.77,0,0,1,201,360.43Z" transform="translate(-30.83 -59.07)"/><path d="M213.7,360.43h-8c-.86,0-1.06-.43-.44-1l5.77-4.93a4.77,4.77,0,0,1,2.68-1h8c.87,0,1.06.43.44,1l-5.77,4.93A4.77,4.77,0,0,1,213.7,360.43Z" transform="translate(-30.83 -59.07)"/><path d="M226.4,360.43h-8c-.86,0-1.05-.43-.43-1l5.76-4.93a4.8,4.8,0,0,1,2.69-1h8c.86,0,1.05.43.43,1l-5.76,4.93A4.8,4.8,0,0,1,226.4,360.43Z" transform="translate(-30.83 -59.07)"/><path d="M239.11,360.43h-8c-.86,0-1.06-.43-.44-1l5.77-4.93a4.77,4.77,0,0,1,2.68-1h8c.86,0,1.06.43.44,1l-5.77,4.93A4.77,4.77,0,0,1,239.11,360.43Z" transform="translate(-30.83 -59.07)"/><path d="M251.81,360.43h-8c-.86,0-1.05-.43-.43-1l5.76-4.93a4.77,4.77,0,0,1,2.69-1h8c.86,0,1.05.43.43,1l-5.76,4.93A4.82,4.82,0,0,1,251.81,360.43Z" transform="translate(-30.83 -59.07)"/><path d="M264.52,360.43h-8c-.87,0-1.06-.43-.44-1l5.77-4.93a4.77,4.77,0,0,1,2.68-1h8c.86,0,1.06.43.44,1l-5.77,4.93A4.77,4.77,0,0,1,264.52,360.43Z" transform="translate(-30.83 -59.07)"/><path d="M277.22,360.43h-8c-.86,0-1.06-.43-.44-1l5.77-4.93a4.77,4.77,0,0,1,2.68-1h8c.86,0,1.05.43.43,1l-5.77,4.93A4.77,4.77,0,0,1,277.22,360.43Z" transform="translate(-30.83 -59.07)"/><path d="M289.92,360.43h-8c-.86,0-1.05-.43-.43-1l5.77-4.93a4.77,4.77,0,0,1,2.68-1h8c.86,0,1.06.43.43,1l-5.76,4.93A4.77,4.77,0,0,1,289.92,360.43Z" transform="translate(-30.83 -59.07)"/><path d="M302.63,360.43h-8c-.86,0-1.06-.43-.44-1l5.77-4.93a4.77,4.77,0,0,1,2.68-1h8c.86,0,1.06.43.44,1l-5.77,4.93A4.77,4.77,0,0,1,302.63,360.43Z" transform="translate(-30.83 -59.07)"/><path d="M315.15,360.43h-8c-.86,0-1.05-.43-.43-1l10.93-9.34a4.77,4.77,0,0,1,2.68-1h8c.86,0,1.06.43.44,1l-10.93,9.34A4.77,4.77,0,0,1,315.15,360.43Z" transform="translate(-30.83 -59.07)"/><path d="M333.48,344.76h-8c-.86,0-1.06-.43-.44-1l5.77-4.93a4.77,4.77,0,0,1,2.68-1h8c.86,0,1.05.43.43,1l-5.77,4.93A4.77,4.77,0,0,1,333.48,344.76Z" transform="translate(-30.83 -59.07)"/><path d="M164.65,352.6h-8c-.86,0-1.05-.43-.43-1l5.77-4.93a4.77,4.77,0,0,1,2.68-1h8c.86,0,1.06.43.43,1l-5.76,4.93A4.77,4.77,0,0,1,164.65,352.6Z" transform="translate(-30.83 -59.07)"/><path d="M177.36,352.6h-8c-.86,0-1.06-.43-.44-1l5.77-4.93a4.77,4.77,0,0,1,2.68-1h8c.86,0,1.06.43.44,1L180,351.64A4.77,4.77,0,0,1,177.36,352.6Z" transform="translate(-30.83 -59.07)"/><path d="M190.06,352.6h-8c-.86,0-1.05-.43-.43-1l5.76-4.93a4.8,4.8,0,0,1,2.69-1h8c.86,0,1,.43.43,1l-5.76,4.93A4.8,4.8,0,0,1,190.06,352.6Z" transform="translate(-30.83 -59.07)"/><path d="M202.77,352.6h-8c-.86,0-1.06-.43-.44-1l5.77-4.93a4.77,4.77,0,0,1,2.68-1h8c.86,0,1.06.43.44,1l-5.77,4.93A4.77,4.77,0,0,1,202.77,352.6Z" transform="translate(-30.83 -59.07)"/><path d="M215.47,352.6h-8c-.86,0-1.06-.43-.43-1l5.76-4.93a4.77,4.77,0,0,1,2.69-1h8c.86,0,1,.43.43,1l-5.77,4.93A4.77,4.77,0,0,1,215.47,352.6Z" transform="translate(-30.83 -59.07)"/><path d="M228.18,352.6h-8c-.86,0-1-.43-.43-1l5.77-4.93a4.77,4.77,0,0,1,2.68-1h8c.86,0,1.06.43.44,1l-5.77,4.93A4.77,4.77,0,0,1,228.18,352.6Z" transform="translate(-30.83 -59.07)"/><path d="M240.88,352.6h-8c-.86,0-1.06-.43-.44-1l5.77-4.93a4.77,4.77,0,0,1,2.68-1h8c.87,0,1.06.43.44,1l-5.77,4.93A4.77,4.77,0,0,1,240.88,352.6Z" transform="translate(-30.83 -59.07)"/><path d="M253.58,352.6h-8c-.86,0-1.05-.43-.43-1l5.76-4.93a4.82,4.82,0,0,1,2.69-1h8c.86,0,1,.43.43,1l-5.76,4.93A4.77,4.77,0,0,1,253.58,352.6Z" transform="translate(-30.83 -59.07)"/><path d="M266.29,352.6h-8c-.86,0-1.06-.43-.44-1l5.77-4.93a4.77,4.77,0,0,1,2.68-1h8c.86,0,1.06.43.44,1L269,351.64A4.77,4.77,0,0,1,266.29,352.6Z" transform="translate(-30.83 -59.07)"/><path d="M279,352.6h-8c-.86,0-1.05-.43-.43-1l5.76-4.93a4.8,4.8,0,0,1,2.69-1h8c.86,0,1.05.43.43,1l-5.76,4.93A4.8,4.8,0,0,1,279,352.6Z" transform="translate(-30.83 -59.07)"/><path d="M291.7,352.6h-8c-.87,0-1.06-.43-.44-1l5.77-4.93a4.77,4.77,0,0,1,2.68-1h8c.86,0,1.06.43.44,1l-5.77,4.93A4.77,4.77,0,0,1,291.7,352.6Z" transform="translate(-30.83 -59.07)"/><path d="M304.4,352.6h-8c-.86,0-1.06-.43-.44-1l5.77-4.93a4.77,4.77,0,0,1,2.68-1h8c.86,0,1.05.43.43,1l-5.77,4.93A4.77,4.77,0,0,1,304.4,352.6Z" transform="translate(-30.83 -59.07)"/><path d="M324.31,352.6H309.36c-.87,0-1.06-.43-.44-1l5.77-4.93a4.77,4.77,0,0,1,2.68-1h15c.86,0,1.05.43.43,1L327,351.64A4.8,4.8,0,0,1,324.31,352.6Z" transform="translate(-30.83 -59.07)"/><path d="M149,368.27H138.32c-.86,0-1.06-.43-.44-1l5.77-4.93a4.77,4.77,0,0,1,2.68-1H157c.86,0,1.06.43.44,1l-5.77,4.93A4.77,4.77,0,0,1,149,368.27Z" transform="translate(-30.83 -59.07)"/><path d="M159,368.27h-5.14c-.86,0-1.06-.43-.44-1l5.77-4.93a4.77,4.77,0,0,1,2.68-1H167c.86,0,1.05.43.43,1l-5.76,4.93A4.8,4.8,0,0,1,159,368.27Z" transform="translate(-30.83 -59.07)"/><path d="M171.73,368.27h-8c-.87,0-1.06-.43-.44-1l5.77-4.93a4.77,4.77,0,0,1,2.68-1h8c.86,0,1.06.43.44,1l-5.77,4.93A4.77,4.77,0,0,1,171.73,368.27Z" transform="translate(-30.83 -59.07)"/><path d="M184.43,368.27h-8c-.86,0-1.06-.43-.44-1l5.77-4.93a4.77,4.77,0,0,1,2.68-1h8c.86,0,1.05.43.43,1l-5.77,4.93A4.77,4.77,0,0,1,184.43,368.27Z" transform="translate(-30.83 -59.07)"/><path d="M197.14,368.27h-8c-.86,0-1-.43-.43-1l5.77-4.93a4.77,4.77,0,0,1,2.68-1h8c.86,0,1.06.43.44,1l-5.77,4.93A4.77,4.77,0,0,1,197.14,368.27Z" transform="translate(-30.83 -59.07)"/><path d="M209.84,368.27h-8c-.86,0-1.06-.43-.44-1l5.77-4.93a4.77,4.77,0,0,1,2.68-1h8c.87,0,1.06.43.44,1l-5.77,4.93A4.77,4.77,0,0,1,209.84,368.27Z" transform="translate(-30.83 -59.07)"/><path d="M222.54,368.27h-8c-.86,0-1-.43-.43-1l5.76-4.93a4.82,4.82,0,0,1,2.69-1h8c.86,0,1.05.43.43,1l-5.76,4.93A4.77,4.77,0,0,1,222.54,368.27Z" transform="translate(-30.83 -59.07)"/><path d="M235.25,368.27h-8c-.86,0-1.06-.43-.44-1l5.77-4.93a4.77,4.77,0,0,1,2.68-1h8c.86,0,1.06.43.44,1l-5.77,4.93A4.77,4.77,0,0,1,235.25,368.27Z" transform="translate(-30.83 -59.07)"/><path d="M248,368.27h-8c-.86,0-1-.43-.43-1l5.76-4.93a4.77,4.77,0,0,1,2.69-1h8c.86,0,1,.43.43,1l-5.76,4.93A4.82,4.82,0,0,1,248,368.27Z" transform="translate(-30.83 -59.07)"/><path d="M260.66,368.27h-8c-.87,0-1.06-.43-.44-1l5.77-4.93a4.77,4.77,0,0,1,2.68-1h8c.86,0,1.06.43.44,1l-5.77,4.93A4.77,4.77,0,0,1,260.66,368.27Z" transform="translate(-30.83 -59.07)"/><path d="M273.36,368.27h-8c-.86,0-1.06-.43-.44-1l5.77-4.93a4.77,4.77,0,0,1,2.68-1h8c.86,0,1.05.43.43,1L276,367.31A4.77,4.77,0,0,1,273.36,368.27Z" transform="translate(-30.83 -59.07)"/><path d="M306,368.27H278.06c-.86,0-1.05-.43-.43-1l5.77-4.93a4.77,4.77,0,0,1,2.68-1H314c.86,0,1.06.43.44,1l-5.77,4.93A4.77,4.77,0,0,1,306,368.27Z" transform="translate(-30.83 -59.07)"/><path d="M137.15,376.1h-8c-.86,0-1.06-.43-.44-1l5.77-4.93a4.77,4.77,0,0,1,2.68-1h8c.86,0,1.05.43.43,1l-5.77,4.93A4.77,4.77,0,0,1,137.15,376.1Z" transform="translate(-30.83 -59.07)"/><path d="M149.85,376.1h-8c-.86,0-1-.43-.43-1l5.77-4.93a4.77,4.77,0,0,1,2.68-1h8c.86,0,1.06.43.44,1l-5.77,4.93A4.77,4.77,0,0,1,149.85,376.1Z" transform="translate(-30.83 -59.07)"/><path d="M162.56,376.1h-8c-.86,0-1.06-.43-.44-1l5.77-4.93a4.77,4.77,0,0,1,2.68-1h8c.87,0,1.06.43.44,1l-5.77,4.93A4.77,4.77,0,0,1,162.56,376.1Z" transform="translate(-30.83 -59.07)"/><path d="M175.26,376.1h-8c-.86,0-1-.43-.43-1l5.76-4.93a4.8,4.8,0,0,1,2.69-1h8c.86,0,1.05.43.43,1L178,375.14A4.8,4.8,0,0,1,175.26,376.1Z" transform="translate(-30.83 -59.07)"/><path d="M276.8,376.1h-8c-.86,0-1.05-.43-.43-1l5.77-4.93a4.77,4.77,0,0,1,2.68-1h8c.86,0,1.06.43.44,1l-5.77,4.93A4.77,4.77,0,0,1,276.8,376.1Z" transform="translate(-30.83 -59.07)"/><path d="M238.78,376.1H180c-.86,0-1.06-.43-.44-1l5.77-4.93a4.77,4.77,0,0,1,2.68-1H246.8c.86,0,1.06.43.43,1l-5.76,4.93A4.77,4.77,0,0,1,238.78,376.1Z" transform="translate(-30.83 -59.07)"/><path d="M251.49,376.1h-8c-.86,0-1.06-.43-.44-1l5.77-4.93a4.77,4.77,0,0,1,2.68-1h8c.86,0,1.06.43.44,1l-5.77,4.93A4.77,4.77,0,0,1,251.49,376.1Z" transform="translate(-30.83 -59.07)"/><path d="M268.84,372.22h-8c-.86,0-1-.43-.43-1l1.22-1a4.77,4.77,0,0,1,2.68-1h8c.86,0,1.06.43.43,1l-1.21,1A4.71,4.71,0,0,1,268.84,372.22Z" transform="translate(-30.83 -59.07)"/><path d="M264.21,376.18h-8c-.86,0-1.06-.43-.44-1l1.76-1.51a4.77,4.77,0,0,1,2.69-1h8c.86,0,1,.43.43,1l-1.76,1.51A4.77,4.77,0,0,1,264.21,376.18Z" transform="translate(-30.83 -59.07)"/><path d="M296.81,376.1h-15c-.86,0-1.05-.43-.43-1l5.76-4.93a4.8,4.8,0,0,1,2.69-1h14.95c.86,0,1.06.43.44,1l-5.77,4.93A4.77,4.77,0,0,1,296.81,376.1Z" transform="translate(-30.83 -59.07)"/><path class="cls-7" d="M211.72,401.37H152.31c-2.11,0-2.58-1.05-1.07-2.35l16.35-14a11.64,11.64,0,0,1,6.56-2.35h59.41c2.1,0,2.58,1.05,1.06,2.35l-16.34,14A11.67,11.67,0,0,1,211.72,401.37Z" transform="translate(-30.83 -59.07)"/><path d="M375,324.59H171.76V192.14a7.61,7.61,0,0,1,7.6-7.6h188a7.6,7.6,0,0,1,7.6,7.6Z" transform="translate(-30.83 -59.07)"/><rect class="cls-8" x="147.81" y="135.39" width="189.47" height="125.57"/><path d="M283.6,10.83h84.66A1.17,1.17,0,0,1,369.43,12v11.8a1.15,1.15,0,0,1-1.15,1.15H283.6a1.15,1.15,0,0,1-1.15-1.15V12a1.15,1.15,0,0,1,1.15-1.15Z"/><rect class="cls-8" x="282.45" y="17.64" width="86.98" height="53.48"/><line class="cls-9" x1="300.77" y1="25.61" x2="350.24" y2="25.61"/><line class="cls-9" x1="300.77" y1="33.13" x2="350.24" y2="33.13"/><line class="cls-9" x1="300.77" y1="40.65" x2="350.24" y2="40.65"/><line class="cls-9" x1="300.77" y1="48.18" x2="350.24" y2="48.18"/><polyline class="cls-9" points="290.47 22.42 294.92 25.65 290.47 28.99"/><path d="M259,36.67h84.66a1.17,1.17,0,0,1,1.17,1.17v11.8a1.15,1.15,0,0,1-1.15,1.15H259a1.15,1.15,0,0,1-1.15-1.15V37.82A1.15,1.15,0,0,1,259,36.67Z"/><rect class="cls-10" x="257.88" y="43.49" width="86.98" height="53.48"/><line class="cls-9" x1="276.2" y1="51.45" x2="325.67" y2="51.45"/><line class="cls-9" x1="276.2" y1="58.98" x2="325.67" y2="58.98"/><line class="cls-9" x1="276.2" y1="66.5" x2="325.67" y2="66.5"/><line class="cls-9" x1="276.2" y1="74.02" x2="325.67" y2="74.02"/><polyline class="cls-9" points="265.89 48.27 270.34 51.5 265.89 54.83"/><path class="cls-8" d="M221.76,133.83a3.62,3.62,0,0,1,7.24-.36c0,.13,0,.25,0,.37a21.8,21.8,0,0,0,4-1.3c-.08-.11-.17-.2-.25-.32a3.62,3.62,0,1,1,6.09-3.93c.07.12.12.24.18.35a21.29,21.29,0,0,0,2.85-3.15,3.33,3.33,0,0,1-.4-.16,3.62,3.62,0,0,1,3.31-6.45c.13.07.25.16.37.24a21.69,21.69,0,0,0,.9-4.19,3.54,3.54,0,0,1-.47.07,3.62,3.62,0,0,1-.36-7.24,2.63,2.63,0,0,1,.49,0,21.77,21.77,0,0,0-1.32-4.12,4.71,4.71,0,0,1-.42.33,3.62,3.62,0,1,1-3.93-6.09,3.58,3.58,0,0,1,.48-.24,22.44,22.44,0,0,0-3.23-2.93,4,4,0,0,1-.21.54A3.62,3.62,0,1,1,230.64,92a3.94,3.94,0,0,1,.31-.48,21.71,21.71,0,0,0-4.28-.91,3.82,3.82,0,0,1,.09.59,3.63,3.63,0,1,1-7.21-.21,20.89,20.89,0,0,0-4.16,1.36,3.38,3.38,0,0,1,.37.46,3.62,3.62,0,0,1-6.09,3.93,3.78,3.78,0,0,1-.25-.49,21.33,21.33,0,0,0-2.9,3.25,5.55,5.55,0,0,1,.52.2,3.62,3.62,0,1,1-3.31,6.45,3.18,3.18,0,0,1-.43-.28,21.28,21.28,0,0,0-.88,4.24,4.17,4.17,0,0,1,.51-.08,3.62,3.62,0,1,1,.36,7.24,3.31,3.31,0,0,1-.45,0,20.87,20.87,0,0,0,1.34,4.07,3.51,3.51,0,0,1,.36-.29,3.62,3.62,0,1,1,3.93,6.09,3.13,3.13,0,0,1-.36.19,21.88,21.88,0,0,0,3.17,2.83c.05-.13.09-.26.15-.39a3.62,3.62,0,0,1,6.45,3.31,2.53,2.53,0,0,1-.21.32,22,22,0,0,0,4.15.87C221.8,134.09,221.77,134,221.76,133.83Zm-12.26-20.7a14.76,14.76,0,1,1,15.47,14A14.76,14.76,0,0,1,209.5,113.13Z" transform="translate(-30.83 -59.07)"/><circle class="cls-11" cx="224.24" cy="112.4" r="12.55" transform="translate(-56.83 36.1) rotate(-22.68)"/><path class="cls-8" d="M152,114.58a3,3,0,0,1-.52,0,25.18,25.18,0,0,0,1.53,4.66,4.14,4.14,0,1,1,4.91,6.64,3.23,3.23,0,0,1-.41.22,25.4,25.4,0,0,0,3.63,3.24,3.38,3.38,0,0,1,.18-.44,4.14,4.14,0,1,1,7.37,3.78,2.3,2.3,0,0,1-.23.37,24.9,24.9,0,0,0,4.75,1,3.5,3.5,0,0,1-.07-.45,4.15,4.15,0,1,1,8.28-.41,3,3,0,0,1,0,.42,24.68,24.68,0,0,0,4.62-1.49c-.1-.12-.2-.23-.29-.36a4.15,4.15,0,0,1,7-4.5,3.73,3.73,0,0,1,.2.4,24.35,24.35,0,0,0,3.27-3.61,4.37,4.37,0,0,1-.46-.18,4.15,4.15,0,0,1,3.79-7.38c.15.08.28.18.42.27a24.7,24.7,0,0,0,1-4.8,5,5,0,0,1-.54.08,4.15,4.15,0,1,1-.42-8.28,3.44,3.44,0,0,1,.56,0A25,25,0,0,0,199,99a3.65,3.65,0,0,1-.48.38,4.15,4.15,0,1,1-4.49-7,5.52,5.52,0,0,1,.54-.28,25,25,0,0,0-3.7-3.34,3.09,3.09,0,0,1-.24.61,4.15,4.15,0,1,1-7.38-3.79,5.21,5.21,0,0,1,.36-.55,25.87,25.87,0,0,0-4.9-1,5.06,5.06,0,0,1,.1.68,4.15,4.15,0,1,1-8.28.41,3.65,3.65,0,0,1,0-.66,25.61,25.61,0,0,0-4.77,1.56,4.52,4.52,0,0,1,.43.53,4.15,4.15,0,0,1-7,4.5,4.25,4.25,0,0,1-.29-.56,24.46,24.46,0,0,0-3.32,3.72,3.28,3.28,0,0,1,.59.23,4.15,4.15,0,1,1-3.78,7.38,4.26,4.26,0,0,1-.5-.32,25.92,25.92,0,0,0-1,4.85,5.4,5.4,0,0,1,.58-.09,4.15,4.15,0,0,1,.42,8.29Zm20.38-17.92a12.9,12.9,0,1,1-8.77,16A12.91,12.91,0,0,1,172.36,96.66Z" transform="translate(-30.83 -59.07)"/><path class="cls-12" d="M339.9,161.44v87.82a8.66,8.66,0,0,1-8.65,8.66H310.76" transform="translate(-30.83 -59.07)"/><path class="cls-12" d="M231.13,262H113.41a8.66,8.66,0,0,1-8.66-8.65v-42.6" transform="translate(-30.83 -59.07)"/><path class="cls-12" d="M314,279.58h87.83a8.65,8.65,0,0,1,8.65,8.65v56.32" transform="translate(-30.83 -59.07)"/><path class="cls-12" d="M231.13,283.35H140.29a8.65,8.65,0,0,0-8.65,8.65v32.08" transform="translate(-30.83 -59.07)"/><path class="cls-12" d="M199.28,128.94l.41,93.84a8.65,8.65,0,0,0,8.68,8.62l30.62-.15" transform="translate(-30.83 -59.07)"/><rect class="cls-10" x="332.39" y="291.4" width="6.92" height="5.61"/><rect class="cls-10" x="345.34" y="291.41" width="18.09" height="5.61"/><rect class="cls-10" x="379.26" y="291.41" width="22.61" height="5.61"/><rect class="cls-10" x="407.15" y="291.41" width="15.83" height="5.61"/><rect class="cls-10" x="359.66" y="301.37" width="10.55" height="5.61"/><rect class="cls-10" x="332.39" y="301.37" width="20.49" height="5.61"/><rect class="cls-10" x="399.61" y="301.37" width="18.09" height="5.61"/><path class="cls-9" d="M454.92,347.49h0a4.06,4.06,0,0,1,4,4.11v2.92a4.14,4.14,0,0,0,1.18,2.91l1.2,1.23-.83.86a4.15,4.15,0,0,0-1.17,2.9v2.49a4.06,4.06,0,0,1-4,4.11h-.66" transform="translate(-30.83 -59.07)"/><path class="cls-9" d="M362.67,347.49h0a4.06,4.06,0,0,0-4,4.11v2.92a4.18,4.18,0,0,1-1.18,2.91l-1.2,1.23.83.86a4.15,4.15,0,0,1,1.17,2.9v2.49a4.06,4.06,0,0,0,4,4.11H363" transform="translate(-30.83 -59.07)"/><line class="cls-9" x1="370.75" y1="291.15" x2="379.79" y2="307.23"/><rect class="cls-10" x="9.58" y="131.74" width="19.88" height="5.61"/><rect class="cls-10" x="34.95" y="131.74" width="23.39" height="5.61"/><rect class="cls-10" x="62.36" y="131.74" width="13.82" height="5.61"/><rect class="cls-10" x="96.76" y="131.74" width="15.83" height="5.61"/><rect class="cls-10" x="12.34" y="141.71" width="37.46" height="5.61"/><rect class="cls-10" x="55.08" y="141.71" width="28.89" height="5.61"/><rect class="cls-10" x="102.31" y="141.71" width="10.05" height="5.61"/><path class="cls-9" d="M144.53,187.83h0a4.06,4.06,0,0,1,4,4.11v2.92a4.15,4.15,0,0,0,1.17,2.9l1.21,1.24-.83.85a4.17,4.17,0,0,0-1.17,2.91v2.48a4.06,4.06,0,0,1-4,4.11h-.66" transform="translate(-30.83 -59.07)"/><path class="cls-9" d="M37.72,187.83h0a4.06,4.06,0,0,0-4,4.11v2.92a4.15,4.15,0,0,1-1.17,2.9L31.33,199l.83.85a4.14,4.14,0,0,1,1.18,2.91v2.48a4.06,4.06,0,0,0,4,4.11H38" transform="translate(-30.83 -59.07)"/><line class="cls-9" x1="85.58" y1="131.49" x2="94.62" y2="147.57"/><path class="cls-8" d="M70.14,340.37c0-4,3.52-7.26,7.86-7.26a8.27,8.27,0,0,1,1.88.21,8.87,8.87,0,0,1-.21-1.94c0-5.39,4.73-9.77,10.57-9.77A11,11,0,0,1,98,324.74a14.41,14.41,0,0,1,13.46-8.6c7.7,0,14,5.6,14.37,12.63a11,11,0,0,1,3.42-.53c5.8,0,10.5,4.34,10.5,9.7s-4.7,9.7-10.5,9.7H77.49A7.55,7.55,0,0,1,70.14,340.37Z" transform="translate(-30.83 -59.07)"/><path class="cls-13" d="M76.77,335.81a5.3,5.3,0,0,0-3.84,3,4.71,4.71,0,0,0,.64,4.64" transform="translate(-30.83 -59.07)"/><path class="cls-13" d="M135.92,339.43a8,8,0,0,1-1.63,3" transform="translate(-30.83 -59.07)"/><path class="cls-13" d="M132.17,331.28c2.71.58,4.13,3.09,4.1,5.72" transform="translate(-30.83 -59.07)"/><path class="cls-13" d="M109.77,319.16a11.09,11.09,0,0,1,8.33,1.73,9.48,9.48,0,0,1,4.08,6.93" transform="translate(-30.83 -59.07)"/><polyline class="cls-14" points="387.02 83.31 398.71 95.46 415.78 70.44"/><polyline class="cls-14" points="40.89 60.54 52.58 72.7 69.66 47.68"/><polyline class="cls-14" points="16.56 230.07 28.25 242.23 45.32 217.21"/><polyline class="cls-14" points="405.07 225.37 416.76 237.52 433.83 212.5"/><polyline class="cls-14" points="220.43 14.37 232.12 26.52 249.2 1.5"/><circle class="cls-10" cx="275.2" cy="257.48" r="52.52" transform="translate(-70.58 405.39) rotate(-76.41)"/><path class="cls-15" d="M256.15,268.43c7.38,5.14,17.09,4.84,24.57,0,8.63-5.56,12.78-15.42,12.66-24.93s-4.17-20-13.24-25.33a22.6,22.6,0,0,0-23.92.51c-11,7.32-14,21.93-11,33.52" transform="translate(-30.83 -59.07)"/><rect class="cls-6" x="234.59" y="244.43" width="68.67" height="56.03" rx="5.91" transform="translate(-32.5 -57.41) rotate(-0.35)"/><rect class="cls-9" x="236.85" y="246.69" width="68.67" height="56.03" rx="5.91" transform="translate(-32.52 -57.39) rotate(-0.35)"/><path d="M277,263.31a8.15,8.15,0,1,1-8.2-8.1A8.15,8.15,0,0,1,277,263.31Z" transform="translate(-30.83 -59.07)"/><polygon points="242.8 227.27 232.97 227.33 234.24 207.67 241.29 207.63 242.8 227.27"/></svg>